<svg xmlns="http://www.w3.org/2000/svg">
    <symbol id="notification"  viewBox="0 0 22 24">
        <path fill-rule="evenodd" clip-rule="evenodd" d="M11 18.335C17.1092 18.335 19.9354 17.5513 20.2084 14.4056C20.2084 11.2621 18.2379 11.4643 18.2379 7.60728C18.2379 4.59457 15.3824 1.16675 11 1.16675C6.61769 1.16675 3.76211 4.59457 3.76211 7.60728C3.76211 11.4643 1.79169 11.2621 1.79169 14.4056C2.06572 17.5632 4.89194 18.335 11 18.335Z" stroke="#555555" stroke-width="2" stroke-linecap="round" stroke-linejoin="round"/>
        <path d="M13.5879 21.5955C12.1101 23.2364 9.80476 23.2559 8.31281 21.5955" stroke="#555555" stroke-width="2" stroke-linecap="round" stroke-linejoin="round"/>
    </symbol>
    <symbol id="pict" viewBox="0 0 64 64">
    <path fill="#394240" d="M60,52H4c-2.211,0-4,1.789-4,4s1.789,4,4,4h56c2.211,0,4-1.789,4-4S62.211,52,60,52z"/>
	<path fill="#394240" d="M56,4H8C5.789,4,4,5.789,4,8v40h56V8C60,5.789,58.211,4,56,4z M52,40H12V12h40V40z"/>
    </symbol>
</svg>